# xmcd CD database file
#
# Track frame offsets:
#	150
#	27496
#	51204
#	69937
#	96205
#	118768
#	140146
#	165698
#	183721
#	203303
#	224782
#	250477
#
# Disc length: 3612 seconds
#
# Revision: 0
# Processed by: cddbd v1.5.2PL0 Copyright (c) Steve Scherf et al.
# Submitted via: CDex 1.70beta3
#
DISCID=bb0e1a0c
DTITLE=The Baker Brothers - Silver Bullets - Live At Motion Blue Yokohama -
DYEAR=2010
DGENRE=Jazz
TTITLE0=Mexican
TTITLE1=Why Oh Why
TTITLE2=Chance And Fly
TTITLE3=Fantasy
TTITLE4=Would I Be Wrong
TTITLE5=Once I Had a Friend
TTITLE6=Family Tree
TTITLE7=Hold On
TTITLE8=Lady Day and John Coltrane
TTITLE9=Doin' It In The Dark
TTITLE10=All Baked Out
TTITLE11=Beat Feat
EXTD=YEAR: 2010
EXTT0=
EXTT1=
EXTT2=
EXTT3=
EXTT4=
EXTT5=
EXTT6=
EXTT7=
EXTT8=
EXTT9=
EXTT10=
EXTT11=
PLAYORDER=
